<?xml version="1.0" encoding="iso-8859-1"?>
<!-- Generator: Adobe Illustrator 27.0.1, SVG Export Plug-In . SVG Version: 6.00 Build 0)  -->
<svg version="1.1" id="Layer_1" xmlns="http://www.w3.org/2000/svg" xmlns:xlink="http://www.w3.org/1999/xlink" x="0px" y="0px"
	 viewBox="0 0 256 256" style="enable-background:new 0 0 256 256;" xml:space="preserve">
<pattern  y="256" width="256" height="256" patternUnits="userSpaceOnUse" id="SVGID_0000012919005443896385431" viewBox="0 -256 256 256" style="overflow:visible;">
	<g>
		<rect y="-256" style="fill:none;" width="256" height="256"/>
		<g>
			<rect y="-256" style="fill:none;" width="256" height="256"/>
			<rect y="-256" style="fill:#345499;" width="256" height="256"/>
			<polygon style="fill:#327FEF;" points="152.897,-256 256,-152.897 256,-147.24 147.24,-256 			"/>
			<polygon style="fill:#327FEF;" points="29.311,-256 256,-29.311 256,-23.654 23.654,-256 			"/>
			<polygon style="fill:#327FEF;" points="11.656,-256 256,-11.656 256,-5.999 5.999,-256 			"/>
			<polygon style="fill:#327FEF;" points="161.725,-256 256,-161.725 256,-156.068 156.068,-256 			"/>
			<polygon style="fill:#327FEF;" points="20.484,-256 256,-20.484 256,-14.827 14.827,-256 			"/>
			<polygon style="fill:#327FEF;" points="170.552,-256 256,-170.552 256,-164.896 164.896,-256 			"/>
			<polygon style="fill:#327FEF;" points="64.621,-256 256,-64.621 256,-58.965 58.965,-256 			"/>
			<polygon style="fill:#327FEF;" points="82.277,-256 256,-82.277 256,-76.62 76.62,-256 			"/>
			<polygon style="fill:#327FEF;" points="99.932,-256 256,-99.932 256,-94.275 94.275,-256 			"/>
			<polygon style="fill:#327FEF;" points="108.759,-256 256,-108.759 256,-103.102 103.103,-256 			"/>
			<polygon style="fill:#327FEF;" points="91.104,-256 256,-91.104 256,-85.447 85.447,-256 			"/>
			<polygon style="fill:#327FEF;" points="73.449,-256 256,-73.449 256,-67.792 67.792,-256 			"/>
			<polygon style="fill:#327FEF;" points="55.794,-256 256,-55.794 256,-50.137 50.137,-256 			"/>
			<polygon style="fill:#327FEF;" points="144.07,-256 256,-144.07 256,-138.413 138.413,-256 			"/>
			<polygon style="fill:#327FEF;" points="135.242,-256 256,-135.242 256,-129.585 129.585,-256 			"/>
			<polygon style="fill:#327FEF;" points="38.139,-256 256,-38.139 256,-32.482 32.482,-256 			"/>
			<polygon style="fill:#327FEF;" points="46.966,-256 256,-46.966 256,-41.309 41.309,-256 			"/>
			<polygon style="fill:#327FEF;" points="117.587,-256 256,-117.587 256,-111.93 111.93,-256 			"/>
			<polygon style="fill:#327FEF;" points="126.415,-256 256,-126.415 256,-120.758 120.758,-256 			"/>
			<polygon style="fill:#327FEF;" points="197.035,-256 256,-197.035 256,-191.378 191.378,-256 			"/>
			<polygon style="fill:#327FEF;" points="156.068,0 0,-156.068 0,-161.725 161.725,0 			"/>
			<polygon style="fill:#327FEF;" points="41.309,0 0,-41.309 0,-46.966 46.966,0 			"/>
			<polygon style="fill:#327FEF;" points="164.896,0 0,-164.896 0,-170.552 170.552,0 			"/>
			<polygon style="fill:#327FEF;" points="147.24,0 0,-147.24 0,-152.897 152.897,0 			"/>
			<polygon style="fill:#327FEF;" points="32.482,0 0,-32.482 0,-38.139 38.139,0 			"/>
			<polygon style="fill:#327FEF;" points="173.723,0 0,-173.723 0,-179.38 179.38,0 			"/>
			<polygon style="fill:#327FEF;" points="50.137,0 0,-50.137 0,-55.794 55.794,0 			"/>
			<polygon style="fill:#327FEF;" points="179.38,-256 256,-179.38 256,-173.723 173.723,-256 			"/>
			<polygon style="fill:#327FEF;" points="182.551,0 0,-182.551 0,-188.208 188.208,0 			"/>
			<polygon style="fill:#327FEF;" points="111.93,0 0,-111.93 0,-117.587 117.587,0 			"/>
			<polygon style="fill:#327FEF;" points="103.103,0 0,-103.103 0,-108.759 108.759,0 			"/>
			<polygon style="fill:#327FEF;" points="94.275,0 0,-94.275 0,-99.932 99.932,0 			"/>
			<polygon style="fill:#327FEF;" points="67.792,0 0,-67.792 0,-73.449 73.449,0 			"/>
			<polygon style="fill:#327FEF;" points="76.62,0 0,-76.62 0,-82.277 82.277,0 			"/>
			<polygon style="fill:#327FEF;" points="120.758,0 0,-120.758 0,-126.415 126.415,0 			"/>
			<polygon style="fill:#327FEF;" points="129.585,0 0,-129.585 0,-135.242 135.242,0 			"/>
			<polygon style="fill:#327FEF;" points="58.965,0 0,-58.965 0,-64.621 64.621,0 			"/>
			<polygon style="fill:#327FEF;" points="200.206,0 0,-200.206 0,-205.863 205.863,0 			"/>
			<polygon style="fill:#327FEF;" points="138.413,0 0,-138.413 0,-144.07 144.07,0 			"/>
			<polygon style="fill:#327FEF;" points="191.379,0 0,-191.378 0,-197.035 197.035,0 			"/>
			<polygon style="fill:#327FEF;" points="223.518,-256 256,-223.518 256,-217.861 217.861,-256 			"/>
			<polygon style="fill:#327FEF;" points="241.173,-256 256,-241.173 256,-235.516 235.516,-256 			"/>
			<polygon style="fill:#327FEF;" points="232.346,-256 256,-232.346 256,-226.689 226.689,-256 			"/>
			<polygon style="fill:#327FEF;" points="0,0 0,-2.828 2.828,0 			"/>
			<polygon style="fill:#327FEF;" points="188.208,-256 256,-188.208 256,-182.551 182.551,-256 			"/>
			<polygon style="fill:#327FEF;" points="85.447,0 0,-85.447 0,-91.104 91.104,0 			"/>
			<polygon style="fill:#327FEF;" points="250.001,-256 256,-250.001 256,-244.344 244.344,-256 			"/>
			<polygon style="fill:#327FEF;" points="214.69,-256 256,-214.69 256,-209.034 209.034,-256 			"/>
			<polygon style="fill:#327FEF;" points="23.654,0 0,-23.654 0,-29.311 29.311,0 			"/>
			<polygon style="fill:#327FEF;" points="205.863,-256 256,-205.863 256,-200.206 200.206,-256 			"/>
			<polygon style="fill:#327FEF;" points="217.861,0 0,-217.861 0,-223.518 223.518,0 			"/>
			<polygon style="fill:#327FEF;" points="14.827,0 0,-14.827 0,-20.484 20.484,0 			"/>
			<polygon style="fill:#327FEF;" points="209.034,0 0,-209.034 0,-214.69 214.691,0 			"/>
			<polygon style="fill:#327FEF;" points="226.689,0 0,-226.689 0,-232.346 232.346,0 			"/>
			<polygon style="fill:#327FEF;" points="256,-256 256,-253.172 253.172,-256 			"/>
			<polygon style="fill:#327FEF;" points="256,0 253.172,0 0,-253.172 0,-256 2.828,-256 256,-2.828 			"/>
			<polygon style="fill:#327FEF;" points="244.344,0 0,-244.344 0,-250.001 250.001,0 			"/>
			<polygon style="fill:#327FEF;" points="235.516,0 0,-235.516 0,-241.173 241.173,0 			"/>
			<polygon style="fill:#327FEF;" points="5.999,0 0,-5.999 0,-11.656 11.656,0 			"/>
		</g>
	</g>
</pattern>
<pattern  y="256" width="256" height="256" patternUnits="userSpaceOnUse" id="SVGID_0000016954466460568499913" viewBox="0 -256 256 256" style="overflow:visible;">
	<g>
		<rect y="-256" style="fill:none;" width="256" height="256"/>
		<g>
			<rect y="-256" style="fill:none;" width="256" height="256"/>
			<rect y="-256" style="fill:#345499;" width="256" height="256"/>
			<polygon style="fill:#327FEF;" points="152.897,-256 256,-152.897 256,-147.24 147.24,-256 			"/>
			<polygon style="fill:#327FEF;" points="29.311,-256 256,-29.311 256,-23.654 23.654,-256 			"/>
			<polygon style="fill:#327FEF;" points="11.656,-256 256,-11.656 256,-5.999 5.999,-256 			"/>
			<polygon style="fill:#327FEF;" points="161.725,-256 256,-161.725 256,-156.068 156.068,-256 			"/>
			<polygon style="fill:#327FEF;" points="20.484,-256 256,-20.484 256,-14.827 14.827,-256 			"/>
			<polygon style="fill:#327FEF;" points="170.552,-256 256,-170.552 256,-164.896 164.896,-256 			"/>
			<polygon style="fill:#327FEF;" points="64.621,-256 256,-64.621 256,-58.965 58.965,-256 			"/>
			<polygon style="fill:#327FEF;" points="82.277,-256 256,-82.277 256,-76.62 76.62,-256 			"/>
			<polygon style="fill:#327FEF;" points="99.932,-256 256,-99.932 256,-94.275 94.275,-256 			"/>
			<polygon style="fill:#327FEF;" points="108.759,-256 256,-108.759 256,-103.102 103.103,-256 			"/>
			<polygon style="fill:#327FEF;" points="91.104,-256 256,-91.104 256,-85.447 85.447,-256 			"/>
			<polygon style="fill:#327FEF;" points="73.449,-256 256,-73.449 256,-67.792 67.792,-256 			"/>
			<polygon style="fill:#327FEF;" points="55.794,-256 256,-55.794 256,-50.137 50.137,-256 			"/>
			<polygon style="fill:#327FEF;" points="144.07,-256 256,-144.07 256,-138.413 138.413,-256 			"/>
			<polygon style="fill:#327FEF;" points="135.242,-256 256,-135.242 256,-129.585 129.585,-256 			"/>
			<polygon style="fill:#327FEF;" points="38.139,-256 256,-38.139 256,-32.482 32.482,-256 			"/>
			<polygon style="fill:#327FEF;" points="46.966,-256 256,-46.966 256,-41.309 41.309,-256 			"/>
			<polygon style="fill:#327FEF;" points="117.587,-256 256,-117.587 256,-111.93 111.93,-256 			"/>
			<polygon style="fill:#327FEF;" points="126.415,-256 256,-126.415 256,-120.758 120.758,-256 			"/>
			<polygon style="fill:#327FEF;" points="197.035,-256 256,-197.035 256,-191.378 191.378,-256 			"/>
			<polygon style="fill:#327FEF;" points="156.068,0 0,-156.068 0,-161.725 161.725,0 			"/>
			<polygon style="fill:#327FEF;" points="41.309,0 0,-41.309 0,-46.966 46.966,0 			"/>
			<polygon style="fill:#327FEF;" points="164.896,0 0,-164.896 0,-170.552 170.552,0 			"/>
			<polygon style="fill:#327FEF;" points="147.24,0 0,-147.24 0,-152.897 152.897,0 			"/>
			<polygon style="fill:#327FEF;" points="32.482,0 0,-32.482 0,-38.139 38.139,0 			"/>
			<polygon style="fill:#327FEF;" points="173.723,0 0,-173.723 0,-179.38 179.38,0 			"/>
			<polygon style="fill:#327FEF;" points="50.137,0 0,-50.137 0,-55.794 55.794,0 			"/>
			<polygon style="fill:#327FEF;" points="179.38,-256 256,-179.38 256,-173.723 173.723,-256 			"/>
			<polygon style="fill:#327FEF;" points="182.551,0 0,-182.551 0,-188.208 188.208,0 			"/>
			<polygon style="fill:#327FEF;" points="111.93,0 0,-111.93 0,-117.587 117.587,0 			"/>
			<polygon style="fill:#327FEF;" points="103.103,0 0,-103.103 0,-108.759 108.759,0 			"/>
			<polygon style="fill:#327FEF;" points="94.275,0 0,-94.275 0,-99.932 99.932,0 			"/>
			<polygon style="fill:#327FEF;" points="67.792,0 0,-67.792 0,-73.449 73.449,0 			"/>
			<polygon style="fill:#327FEF;" points="76.62,0 0,-76.62 0,-82.277 82.277,0 			"/>
			<polygon style="fill:#327FEF;" points="120.758,0 0,-120.758 0,-126.415 126.415,0 			"/>
			<polygon style="fill:#327FEF;" points="129.585,0 0,-129.585 0,-135.242 135.242,0 			"/>
			<polygon style="fill:#327FEF;" points="58.965,0 0,-58.965 0,-64.621 64.621,0 			"/>
			<polygon style="fill:#327FEF;" points="200.206,0 0,-200.206 0,-205.863 205.863,0 			"/>
			<polygon style="fill:#327FEF;" points="138.413,0 0,-138.413 0,-144.07 144.07,0 			"/>
			<polygon style="fill:#327FEF;" points="191.379,0 0,-191.378 0,-197.035 197.035,0 			"/>
			<polygon style="fill:#327FEF;" points="223.518,-256 256,-223.518 256,-217.861 217.861,-256 			"/>
			<polygon style="fill:#327FEF;" points="241.173,-256 256,-241.173 256,-235.516 235.516,-256 			"/>
			<polygon style="fill:#327FEF;" points="232.346,-256 256,-232.346 256,-226.689 226.689,-256 			"/>
			<polygon style="fill:#327FEF;" points="0,0 0,-2.828 2.828,0 			"/>
			<polygon style="fill:#327FEF;" points="188.208,-256 256,-188.208 256,-182.551 182.551,-256 			"/>
			<polygon style="fill:#327FEF;" points="85.447,0 0,-85.447 0,-91.104 91.104,0 			"/>
			<polygon style="fill:#327FEF;" points="250.001,-256 256,-250.001 256,-244.344 244.344,-256 			"/>
			<polygon style="fill:#327FEF;" points="214.69,-256 256,-214.69 256,-209.034 209.034,-256 			"/>
			<polygon style="fill:#327FEF;" points="23.654,0 0,-23.654 0,-29.311 29.311,0 			"/>
			<polygon style="fill:#327FEF;" points="205.863,-256 256,-205.863 256,-200.206 200.206,-256 			"/>
			<polygon style="fill:#327FEF;" points="217.861,0 0,-217.861 0,-223.518 223.518,0 			"/>
			<polygon style="fill:#327FEF;" points="14.827,0 0,-14.827 0,-20.484 20.484,0 			"/>
			<polygon style="fill:#327FEF;" points="209.034,0 0,-209.034 0,-214.69 214.691,0 			"/>
			<polygon style="fill:#327FEF;" points="226.689,0 0,-226.689 0,-232.346 232.346,0 			"/>
			<polygon style="fill:#327FEF;" points="256,-256 256,-253.172 253.172,-256 			"/>
			<polygon style="fill:#327FEF;" points="256,0 253.172,0 0,-253.172 0,-256 2.828,-256 256,-2.828 			"/>
			<polygon style="fill:#327FEF;" points="244.344,0 0,-244.344 0,-250.001 250.001,0 			"/>
			<polygon style="fill:#327FEF;" points="235.516,0 0,-235.516 0,-241.173 241.173,0 			"/>
			<polygon style="fill:#327FEF;" points="5.999,0 0,-5.999 0,-11.656 11.656,0 			"/>
		</g>
	</g>
</pattern>
<pattern  y="256" width="256" height="256" patternUnits="userSpaceOnUse" id="SVGID_1_" viewBox="0 -256 256 256" style="overflow:visible;">
	<g>
		<rect y="-256" style="fill:none;" width="256" height="256"/>
		<g>
			<rect y="-256" style="fill:none;" width="256" height="256"/>
			<rect y="-256" style="fill:#345499;" width="256" height="256"/>
			<polygon style="fill:#327FEF;" points="152.897,-256 256,-152.897 256,-147.24 147.24,-256 			"/>
			<polygon style="fill:#327FEF;" points="29.311,-256 256,-29.311 256,-23.654 23.654,-256 			"/>
			<polygon style="fill:#327FEF;" points="11.656,-256 256,-11.656 256,-5.999 5.999,-256 			"/>
			<polygon style="fill:#327FEF;" points="161.725,-256 256,-161.725 256,-156.068 156.068,-256 			"/>
			<polygon style="fill:#327FEF;" points="20.484,-256 256,-20.484 256,-14.827 14.827,-256 			"/>
			<polygon style="fill:#327FEF;" points="170.552,-256 256,-170.552 256,-164.896 164.896,-256 			"/>
			<polygon style="fill:#327FEF;" points="64.621,-256 256,-64.621 256,-58.965 58.965,-256 			"/>
			<polygon style="fill:#327FEF;" points="82.277,-256 256,-82.277 256,-76.62 76.62,-256 			"/>
			<polygon style="fill:#327FEF;" points="99.932,-256 256,-99.932 256,-94.275 94.275,-256 			"/>
			<polygon style="fill:#327FEF;" points="108.759,-256 256,-108.759 256,-103.102 103.103,-256 			"/>
			<polygon style="fill:#327FEF;" points="91.104,-256 256,-91.104 256,-85.447 85.447,-256 			"/>
			<polygon style="fill:#327FEF;" points="73.449,-256 256,-73.449 256,-67.792 67.792,-256 			"/>
			<polygon style="fill:#327FEF;" points="55.794,-256 256,-55.794 256,-50.137 50.137,-256 			"/>
			<polygon style="fill:#327FEF;" points="144.07,-256 256,-144.07 256,-138.413 138.413,-256 			"/>
			<polygon style="fill:#327FEF;" points="135.242,-256 256,-135.242 256,-129.585 129.585,-256 			"/>
			<polygon style="fill:#327FEF;" points="38.139,-256 256,-38.139 256,-32.482 32.482,-256 			"/>
			<polygon style="fill:#327FEF;" points="46.966,-256 256,-46.966 256,-41.309 41.309,-256 			"/>
			<polygon style="fill:#327FEF;" points="117.587,-256 256,-117.587 256,-111.93 111.93,-256 			"/>
			<polygon style="fill:#327FEF;" points="126.415,-256 256,-126.415 256,-120.758 120.758,-256 			"/>
			<polygon style="fill:#327FEF;" points="197.035,-256 256,-197.035 256,-191.378 191.378,-256 			"/>
			<polygon style="fill:#327FEF;" points="156.068,0 0,-156.068 0,-161.725 161.725,0 			"/>
			<polygon style="fill:#327FEF;" points="41.309,0 0,-41.309 0,-46.966 46.966,0 			"/>
			<polygon style="fill:#327FEF;" points="164.896,0 0,-164.896 0,-170.552 170.552,0 			"/>
			<polygon style="fill:#327FEF;" points="147.24,0 0,-147.24 0,-152.897 152.897,0 			"/>
			<polygon style="fill:#327FEF;" points="32.482,0 0,-32.482 0,-38.139 38.139,0 			"/>
			<polygon style="fill:#327FEF;" points="173.723,0 0,-173.723 0,-179.38 179.38,0 			"/>
			<polygon style="fill:#327FEF;" points="50.137,0 0,-50.137 0,-55.794 55.794,0 			"/>
			<polygon style="fill:#327FEF;" points="179.38,-256 256,-179.38 256,-173.723 173.723,-256 			"/>
			<polygon style="fill:#327FEF;" points="182.551,0 0,-182.551 0,-188.208 188.208,0 			"/>
			<polygon style="fill:#327FEF;" points="111.93,0 0,-111.93 0,-117.587 117.587,0 			"/>
			<polygon style="fill:#327FEF;" points="103.103,0 0,-103.103 0,-108.759 108.759,0 			"/>
			<polygon style="fill:#327FEF;" points="94.275,0 0,-94.275 0,-99.932 99.932,0 			"/>
			<polygon style="fill:#327FEF;" points="67.792,0 0,-67.792 0,-73.449 73.449,0 			"/>
			<polygon style="fill:#327FEF;" points="76.62,0 0,-76.62 0,-82.277 82.277,0 			"/>
			<polygon style="fill:#327FEF;" points="120.758,0 0,-120.758 0,-126.415 126.415,0 			"/>
			<polygon style="fill:#327FEF;" points="129.585,0 0,-129.585 0,-135.242 135.242,0 			"/>
			<polygon style="fill:#327FEF;" points="58.965,0 0,-58.965 0,-64.621 64.621,0 			"/>
			<polygon style="fill:#327FEF;" points="200.206,0 0,-200.206 0,-205.863 205.863,0 			"/>
			<polygon style="fill:#327FEF;" points="138.413,0 0,-138.413 0,-144.07 144.07,0 			"/>
			<polygon style="fill:#327FEF;" points="191.379,0 0,-191.378 0,-197.035 197.035,0 			"/>
			<polygon style="fill:#327FEF;" points="223.518,-256 256,-223.518 256,-217.861 217.861,-256 			"/>
			<polygon style="fill:#327FEF;" points="241.173,-256 256,-241.173 256,-235.516 235.516,-256 			"/>
			<polygon style="fill:#327FEF;" points="232.346,-256 256,-232.346 256,-226.689 226.689,-256 			"/>
			<polygon style="fill:#327FEF;" points="0,0 0,-2.828 2.828,0 			"/>
			<polygon style="fill:#327FEF;" points="188.208,-256 256,-188.208 256,-182.551 182.551,-256 			"/>
			<polygon style="fill:#327FEF;" points="85.447,0 0,-85.447 0,-91.104 91.104,0 			"/>
			<polygon style="fill:#327FEF;" points="250.001,-256 256,-250.001 256,-244.344 244.344,-256 			"/>
			<polygon style="fill:#327FEF;" points="214.69,-256 256,-214.69 256,-209.034 209.034,-256 			"/>
			<polygon style="fill:#327FEF;" points="23.654,0 0,-23.654 0,-29.311 29.311,0 			"/>
			<polygon style="fill:#327FEF;" points="205.863,-256 256,-205.863 256,-200.206 200.206,-256 			"/>
			<polygon style="fill:#327FEF;" points="217.861,0 0,-217.861 0,-223.518 223.518,0 			"/>
			<polygon style="fill:#327FEF;" points="14.827,0 0,-14.827 0,-20.484 20.484,0 			"/>
			<polygon style="fill:#327FEF;" points="209.034,0 0,-209.034 0,-214.69 214.691,0 			"/>
			<polygon style="fill:#327FEF;" points="226.689,0 0,-226.689 0,-232.346 232.346,0 			"/>
			<polygon style="fill:#327FEF;" points="256,-256 256,-253.172 253.172,-256 			"/>
			<polygon style="fill:#327FEF;" points="256,0 253.172,0 0,-253.172 0,-256 2.828,-256 256,-2.828 			"/>
			<polygon style="fill:#327FEF;" points="244.344,0 0,-244.344 0,-250.001 250.001,0 			"/>
			<polygon style="fill:#327FEF;" points="235.516,0 0,-235.516 0,-241.173 241.173,0 			"/>
			<polygon style="fill:#327FEF;" points="5.999,0 0,-5.999 0,-11.656 11.656,0 			"/>
		</g>
	</g>
</pattern>
<g>
	
		<pattern  id="SVGID_00000005959042057944472060000009645798802200348342_" xlink:href="#SVGID_1_" patternTransform="matrix(1 0 0 -1 -367 -16603)">
	</pattern>
	<path style="fill:url(#SVGID_00000005959042057944472060000009645798802200348342_);" d="M216,41.5v53c0,0.828,0.672,1.5,1.5,1.5
		h13c0.828,0,1.5-0.672,1.5-1.5V40V25.5c0-0.828-0.672-1.5-1.5-1.5H216h-54.5c-0.828,0-1.5,0.672-1.5,1.5v13
		c0,0.828,0.672,1.5,1.5,1.5h53C215.328,40,216,40.672,216,41.5z"/>
	
		<pattern  id="SVGID_00000029768167136862582980000011600379506853013120_" xlink:href="#SVGID_0000016954466460568499913" patternTransform="matrix(1 0 0 -1 -367 -16603)">
	</pattern>
	<path style="fill:url(#SVGID_00000029768167136862582980000011600379506853013120_);" d="M161.5,96h13c0.828,0,1.5-0.672,1.5-1.5
		v-13c0-0.828-0.672-1.5-1.5-1.5h-13c-0.828,0-1.5,0.672-1.5,1.5v13C160,95.328,160.672,96,161.5,96z"/>
	
		<pattern  id="SVGID_00000167374274316774333670000014827791071743646873_" xlink:href="#SVGID_0000012919005443896385431" patternTransform="matrix(1 0 0 -1 -367 -16603)">
	</pattern>
	<path style="fill:url(#SVGID_00000167374274316774333670000014827791071743646873_);" d="M102.829,106.97L96,113.799v-9.657V76.988
		C96,56.56,112.56,40,132.988,40h1.512c0.828,0,1.5-0.672,1.5-1.5V25.488c0-0.822-0.666-1.488-1.488-1.488h-1.524
		C103.723,24,80,47.723,80,76.988v27.154v9.657l-6.828-6.828L57.948,91.747c-0.586-0.586-1.536-0.586-2.121,0l-9.192,9.192
		c-0.586,0.586-0.586,1.536,0,2.121l40.305,40.305c0.586,0.586,1.536,0.586,2.121,0l40.305-40.305c0.586-0.586,0.586-1.536,0-2.121
		l-9.192-9.192c-0.586-0.586-1.536-0.586-2.121,0L102.829,106.97z"/>
</g>
<g>
	<path style="fill:#7F35B2;" d="M40,214.5v-53c0-0.828-0.672-1.5-1.5-1.5h-13c-0.828,0-1.5,0.672-1.5,1.5V216v14.5
		c0,0.828,0.672,1.5,1.5,1.5H40h54.5c0.828,0,1.5-0.672,1.5-1.5v-13c0-0.828-0.672-1.5-1.5-1.5h-53C40.672,216,40,215.328,40,214.5z
		"/>
	<path style="fill:#7F35B2;" d="M94.5,160h-13c-0.828,0-1.5,0.672-1.5,1.5v13c0,0.828,0.672,1.5,1.5,1.5h13
		c0.828,0,1.5-0.672,1.5-1.5v-13C96,160.672,95.328,160,94.5,160z"/>
	<path style="fill:#7F35B2;" d="M153.171,149.03l6.828-6.828v9.657v27.154C160,199.44,143.44,216,123.012,216H121.5
		c-0.828,0-1.5,0.672-1.5,1.5v13.012c0,0.822,0.666,1.488,1.488,1.488h1.524C152.277,232,176,208.277,176,179.012v-27.154v-9.657
		l6.828,6.828l15.224,15.224c0.586,0.586,1.536,0.586,2.121,0l9.192-9.192c0.586-0.586,0.586-1.536,0-2.121l-40.305-40.305
		c-0.586-0.586-1.536-0.586-2.121,0l-40.305,40.305c-0.586,0.586-0.586,1.536,0,2.121l9.192,9.192c0.586,0.586,1.536,0.586,2.121,0
		L153.171,149.03z"/>
</g>
</svg>
