<?xml version="1.0" encoding="iso-8859-1"?>
<!-- Generator: Adobe Illustrator 27.0.1, SVG Export Plug-In . SVG Version: 6.00 Build 0)  -->
<svg version="1.1" xmlns="http://www.w3.org/2000/svg" xmlns:xlink="http://www.w3.org/1999/xlink" x="0px" y="0px"
	 viewBox="0 0 800 500" style="enable-background:new 0 0 800 500;" xml:space="preserve">
<g id="Layer_1">
	<g id="Main_x5F_Purple_x5F_BG_x5F_layer">
	</g>
</g>
<g id="crop">
	<g>
		<defs>
			<rect id="SVGID_1_" width="800" height="500"/>
		</defs>
		<clipPath id="SVGID_00000050637200403979082620000007410030206463030715_">
			<use xlink:href="#SVGID_1_"  style="overflow:visible;"/>
		</clipPath>
		
			<rect style="clip-path:url(#SVGID_00000050637200403979082620000007410030206463030715_);fill:#48086F;stroke:#000000;stroke-miterlimit:10;" width="800" height="500"/>
		
			<g id="ask_x5F_benix_x5F_core_00000051349372026833829950000006002960360723974274_" style="clip-path:url(#SVGID_00000050637200403979082620000007410030206463030715_);">
			<path style="fill:#3ADCC9;" d="M771.02,82.56V52.92c0-1.889-1.531-3.42-3.42-3.42H500.84c-1.889,0-3.42,1.531-3.42,3.42v266.76
				c0,1.889,1.531,3.42,3.42,3.42h147.194c0.907,0,1.777,0.36,2.418,1.002l70.957,70.957c0.641,0.641,1.511,1.002,2.418,1.002H767.6
				c1.889,0,3.42-1.531,3.42-3.42V125.88c0-1.889-1.531-3.42-3.42-3.42h-29.64c-1.889,0-3.42,1.531-3.42,3.42v222.434
				c0,3.047-3.684,4.573-5.838,2.418l-63.11-63.11c-0.641-0.641-1.511-1.002-2.418-1.002H537.32c-1.889,0-3.42-1.531-3.42-3.42V89.4
				c0-1.889,1.531-3.42,3.42-3.42H767.6C769.489,85.98,771.02,84.449,771.02,82.56z"/>
			<g>
				<polygon style="fill:#930082;" points="557.331,396.06 593.811,432.54 601.04,432.54 564.56,396.06 				"/>
				<polygon style="fill:#930082;" points="577.458,396.06 613.938,432.54 621.167,432.54 584.687,396.06 				"/>
				<polygon style="fill:#930082;" points="537.204,396.06 543.02,401.876 573.684,432.54 580.913,432.54 544.433,396.06 				"/>
				<polygon style="fill:#930082;" points="597.585,396.06 634.065,432.54 641.294,432.54 604.814,396.06 				"/>
				<polygon style="fill:#930082;" points="637.839,396.06 652.46,410.681 652.46,403.452 645.068,396.06 				"/>
				<path style="fill:#930082;" d="M617.712,396.06l34.448,34.448c0.19-0.425,0.3-0.893,0.3-1.388v-5.541l-27.519-27.519H617.712z"
					/>
				<path style="fill:#C900AC;" d="M604.814,396.06l36.48,36.48h7.746c1.393,0,2.587-0.836,3.12-2.032l-34.448-34.448H604.814z"/>
				<polygon style="fill:#C900AC;" points="584.687,396.06 621.167,432.54 634.065,432.54 597.585,396.06 				"/>
				<polygon style="fill:#C900AC;" points="564.56,396.06 601.04,432.54 613.938,432.54 577.458,396.06 				"/>
				<polygon style="fill:#C900AC;" points="624.941,396.06 652.46,423.579 652.46,410.681 637.839,396.06 				"/>
				<path style="fill:#C900AC;" d="M649.04,396.06h-3.972l7.392,7.392v-3.972C652.46,397.591,650.929,396.06,649.04,396.06z"/>
				<polygon style="fill:#C900AC;" points="543.02,422.003 517.077,396.06 504.179,396.06 540.659,432.54 553.557,432.54 
					543.02,422.003 				"/>
				<polygon style="fill:#C900AC;" points="544.433,396.06 580.913,432.54 593.811,432.54 557.331,396.06 				"/>
				<polygon style="fill:#930082;" points="424.46,376.721 387.98,340.241 387.98,347.47 424.46,383.95 				"/>
				<polygon style="fill:#930082;" points="424.46,396.848 387.98,360.368 387.98,367.597 424.46,404.077 				"/>
				<polygon style="fill:#930082;" points="424.46,416.975 387.98,380.495 387.98,387.724 424.46,424.204 				"/>
				<polygon style="fill:#930082;" points="424.46,235.833 387.98,199.353 387.98,206.582 424.46,243.062 				"/>
				<polygon style="fill:#930082;" points="424.46,316.34 387.98,279.86 387.98,287.09 424.46,323.57 				"/>
				<polygon style="fill:#930082;" points="424.46,437.102 387.98,400.622 387.98,407.851 424.46,444.331 				"/>
				<path style="fill:#930082;" d="M424.46,457.754v-0.525l-36.48-36.48v7.229l63.066,63.066l3.615-3.615l-26.295-26.295
					C426.454,461.399,424.46,459.995,424.46,457.754z"/>
				<polygon style="fill:#930082;" points="424.46,336.467 387.98,299.987 387.98,307.216 424.46,343.696 				"/>
				<polygon style="fill:#930082;" points="424.46,296.213 387.98,259.733 387.98,266.963 424.46,303.443 				"/>
				<polygon style="fill:#930082;" points="424.46,356.594 387.98,320.114 387.98,327.343 424.46,363.823 				"/>
				<polygon style="fill:#930082;" points="424.46,276.087 387.98,239.607 387.98,246.836 424.46,283.316 				"/>
				<polygon style="fill:#930082;" points="424.46,255.96 387.98,219.48 387.98,226.709 424.46,263.189 				"/>
				<polygon style="fill:#930082;" points="424.46,215.706 387.98,179.226 387.98,186.455 424.46,222.935 				"/>
				<polygon style="fill:#930082;" points="485.617,404.853 513.304,432.54 520.533,432.54 489.232,401.239 				"/>
				<polygon style="fill:#930082;" points="387.98,488.359 405.121,505.5 412.351,505.5 387.98,481.129 				"/>
				
					<rect x="447.456" y="448.018" transform="matrix(0.7071 -0.7071 0.7071 0.7071 -197.896 454.7732)" style="fill:#930082;" width="5.112" height="36.5"/>
				
					<rect x="487.71" y="407.764" transform="matrix(0.7071 -0.7071 0.7071 0.7071 -157.6422 471.4468)" style="fill:#930082;" width="5.112" height="36.5"/>
				<path style="fill:#930082;" d="M387.98,502.08c0,1.889,1.531,3.42,3.42,3.42h0.824l-4.244-4.244V502.08z"/>
				<polygon style="fill:#930082;" points="524.306,396.06 517.077,396.06 543.02,422.003 543.02,422.003 553.557,432.54 
					560.786,432.54 543.02,414.774 				"/>
				<polygon style="fill:#930082;" points="496.95,396.06 533.43,432.54 540.659,432.54 504.179,396.06 				"/>
				<polygon style="fill:#930082;" points="387.98,468.232 425.248,505.5 432.478,505.5 387.98,461.002 				"/>
				
					<rect x="457.519" y="437.955" transform="matrix(0.7071 -0.7071 0.7071 0.7071 -187.8326 458.9416)" style="fill:#930082;" width="5.112" height="36.5"/>
				<polygon style="fill:#930082;" points="424.46,175.452 417.068,168.06 409.839,168.06 424.46,182.681 				"/>
				<polygon style="fill:#930082;" points="387.98,448.105 440.982,501.107 444.597,497.493 387.98,440.876 				"/>
				<path style="fill:#930082;" d="M424.46,195.579l-27.519-27.519H391.4c-0.495,0-0.963,0.11-1.388,0.3l34.448,34.449V195.579z"/>
				
					<rect x="467.583" y="427.891" transform="matrix(0.7071 -0.7071 0.7071 0.7071 -177.769 463.11)" style="fill:#930082;" width="5.112" height="36.5"/>
				
					<rect x="477.646" y="417.828" transform="matrix(0.7071 -0.7071 0.7071 0.7071 -167.7056 467.2785)" style="fill:#930082;" width="5.112" height="36.5"/>
				<polygon style="fill:#C900AC;" points="387.98,481.129 412.351,505.5 425.248,505.5 387.98,468.232 				"/>
				<polygon style="fill:#C900AC;" points="387.98,440.876 444.597,497.493 451.046,491.044 387.98,427.978 				"/>
				<path style="fill:#C900AC;" d="M387.98,461.002l44.498,44.498h2.695c0.907,0,1.777-0.36,2.418-1.002l3.391-3.391l-53.002-53.002
					V461.002z"/>
				<polygon style="fill:#C900AC;" points="387.98,501.256 392.224,505.5 405.121,505.5 387.98,488.359 				"/>
				<polygon style="fill:#C900AC;" points="424.46,222.935 387.98,186.455 387.98,199.353 424.46,235.833 				"/>
				<polygon style="fill:#C900AC;" points="424.46,243.062 387.98,206.582 387.98,219.48 424.46,255.96 				"/>
				<path style="fill:#C900AC;" d="M424.46,202.808l-34.448-34.449c-1.195,0.533-2.032,1.727-2.032,3.12v7.746l36.48,36.48V202.808z
					"/>
				<polygon style="fill:#C900AC;" points="424.46,263.189 387.98,226.709 387.98,239.607 424.46,276.087 				"/>
				<polygon style="fill:#C900AC;" points="537.204,396.06 524.306,396.06 543.02,414.774 560.786,432.54 573.684,432.54 
					543.02,401.876 				"/>
				<polygon style="fill:#C900AC;" points="424.46,283.316 387.98,246.836 387.98,259.733 424.46,296.213 				"/>
				<path style="fill:#C900AC;" d="M424.46,171.48c0-1.889-1.531-3.42-3.42-3.42h-3.972l7.392,7.392V171.48z"/>
				<path style="fill:#C900AC;" d="M495.827,396.06c-0.907,0-1.777,0.36-2.418,1.002l-4.177,4.177l31.301,31.301h12.897
					l-36.48-36.48H495.827z"/>
				<polygon style="fill:#C900AC;" points="424.46,323.57 387.98,287.09 387.98,299.987 424.46,336.467 				"/>
				<polygon style="fill:#C900AC;" points="424.46,182.681 409.839,168.06 396.941,168.06 424.46,195.579 				"/>
				<polygon style="fill:#C900AC;" points="424.46,303.443 387.98,266.963 387.98,279.86 424.46,316.34 				"/>
				
					<rect x="480.674" y="412.796" transform="matrix(0.7071 -0.7071 0.7071 0.7071 -162.6739 469.3626)" style="fill:#C900AC;" width="9.12" height="36.5"/>
				<polygon style="fill:#C900AC;" points="424.46,363.823 387.98,327.343 387.98,340.241 424.46,376.721 				"/>
				<polygon style="fill:#C900AC;" points="424.46,343.696 387.98,307.216 387.98,320.114 424.46,356.594 				"/>
				<path style="fill:#C900AC;" d="M479.168,411.302l25.81,25.81l3.57-3.57c0.641-0.641,1.511-1.002,2.418-1.002h2.337
					l-27.687-27.687L479.168,411.302z"/>
				<polygon style="fill:#C900AC;" points="424.46,383.95 387.98,347.47 387.98,360.368 424.46,396.848 				"/>
				
					<rect x="470.611" y="422.859" transform="matrix(0.7071 -0.7071 0.7071 0.7071 -172.7373 465.1943)" style="fill:#C900AC;" width="9.12" height="36.5"/>
				<path style="fill:#C900AC;" d="M430.298,460.172c-0.569,0.569-1.246,0.867-1.933,0.962l26.295,26.295l6.449-6.449l-25.81-25.81
					L430.298,460.172z"/>
				<polygon style="fill:#C900AC;" points="424.46,444.331 387.98,407.851 387.98,420.749 424.46,457.229 				"/>
				
					<rect x="450.483" y="442.986" transform="matrix(0.7071 -0.7071 0.7071 0.7071 -192.8643 456.8574)" style="fill:#C900AC;" width="9.12" height="36.5"/>
				<polygon style="fill:#C900AC;" points="424.46,424.204 387.98,387.724 387.98,400.622 424.46,437.102 				"/>
				
					<rect x="460.547" y="432.923" transform="matrix(0.7071 -0.7071 0.7071 0.7071 -182.8008 461.0258)" style="fill:#C900AC;" width="9.12" height="36.5"/>
				<polygon style="fill:#C900AC;" points="424.46,404.077 387.98,367.597 387.98,380.495 424.46,416.975 				"/>
			</g>
			<path style="fill:#3ADCC9;" d="M650.96,204.54h-33.48c-0.828,0-1.5-0.672-1.5-1.5v-33.48c0-0.828,0.672-1.5,1.5-1.5h33.48
				c0.828,0,1.5,0.672,1.5,1.5v33.48C652.46,203.868,651.788,204.54,650.96,204.54z"/>
		</g>
		<g style="clip-path:url(#SVGID_00000050637200403979082620000007410030206463030715_);">
		</g>
	</g>
</g>
</svg>
