<?xml version="1.0" encoding="iso-8859-1"?>
<!-- Generator: Adobe Illustrator 27.0.1, SVG Export Plug-In . SVG Version: 6.00 Build 0)  -->
<svg version="1.1" xmlns="http://www.w3.org/2000/svg" xmlns:xlink="http://www.w3.org/1999/xlink" x="0px" y="0px"
	 viewBox="0 0 800 500" style="enable-background:new 0 0 800 500;" xml:space="preserve">
<g id="Layer_1">
	<g id="Main_x5F_Purple_x5F_BG_x5F_layer">
	</g>
</g>
<g id="crop">
	<g>
		<defs>
			<rect id="SVGID_1_" width="800" height="500"/>
		</defs>
		<clipPath id="SVGID_00000008870107008853333150000014592327745085831593_">
			<use xlink:href="#SVGID_1_"  style="overflow:visible;"/>
		</clipPath>
		
			<rect style="clip-path:url(#SVGID_00000008870107008853333150000014592327745085831593_);fill:#48086F;stroke:#000000;stroke-miterlimit:10;" width="800" height="500"/>
		
			<g id="benefits_x5F_broker_x5F_core_00000078040485793909159430000016015236746978608554_" style="clip-path:url(#SVGID_00000008870107008853333150000014592327745085831593_);">
			<g>
				<polygon style="fill:#339781;" points="605.808,329.657 640.885,294.58 640.885,287.628 605.808,322.705 				"/>
				<polygon style="fill:#339781;" points="605.808,174.834 640.885,139.757 640.885,132.806 605.808,167.883 				"/>
				<path style="fill:#339781;" d="M605.808,155.482l33.393-33.393c-0.477-0.269-1.019-0.435-1.605-0.435h-4.912l-26.877,26.877
					V155.482z"/>
				<polygon style="fill:#339781;" points="605.808,349.01 640.885,313.932 640.885,306.981 605.808,342.058 				"/>
				<polygon style="fill:#339781;" points="605.808,194.187 640.885,159.11 640.885,152.159 605.808,187.236 				"/>
				<polygon style="fill:#339781;" points="605.808,252.245 640.885,217.169 640.885,210.217 605.808,245.294 				"/>
				<polygon style="fill:#339781;" points="605.808,310.304 640.885,275.227 640.885,268.276 605.808,303.353 				"/>
				<polygon style="fill:#339781;" points="605.808,368.362 640.885,333.285 640.885,326.334 605.808,361.411 				"/>
				<polygon style="fill:#339781;" points="605.808,271.598 640.885,236.521 640.885,229.57 605.808,264.647 				"/>
				<polygon style="fill:#339781;" points="605.808,213.54 640.885,178.463 640.885,171.512 605.808,206.589 				"/>
				<polygon style="fill:#339781;" points="605.808,290.951 640.885,255.874 640.885,248.923 605.808,284 				"/>
				<polygon style="fill:#339781;" points="605.808,387.715 640.885,352.638 640.885,345.687 605.808,380.764 				"/>
				<path style="fill:#339781;" d="M609.096,437.346h5.139l26.65-26.65v-6.951l-33.246,33.246
					C608.079,437.211,608.57,437.346,609.096,437.346z"/>
				<polygon style="fill:#339781;" points="605.808,426.421 640.885,391.344 640.885,384.392 605.808,419.469 				"/>
				<polygon style="fill:#339781;" points="633.588,437.346 640.885,430.049 640.885,423.098 626.636,437.346 				"/>
				<polygon style="fill:#339781;" points="605.808,232.893 640.885,197.816 640.885,190.864 605.808,225.941 				"/>
				<polygon style="fill:#339781;" points="605.808,407.068 640.885,371.991 640.885,365.04 605.808,400.117 				"/>
				<polygon style="fill:#339781;" points="613.331,121.654 605.808,129.177 605.808,136.129 620.283,121.654 				"/>
				<polygon style="fill:#3ADCC9;" points="605.808,264.647 640.885,229.57 640.885,217.169 605.808,252.245 				"/>
				<polygon style="fill:#3ADCC9;" points="605.808,284 640.885,248.923 640.885,236.521 605.808,271.598 				"/>
				<polygon style="fill:#3ADCC9;" points="605.808,245.294 640.885,210.217 640.885,197.816 605.808,232.893 				"/>
				<polygon style="fill:#3ADCC9;" points="605.808,303.353 640.885,268.276 640.885,255.874 605.808,290.951 				"/>
				<polygon style="fill:#3ADCC9;" points="605.808,322.705 640.885,287.628 640.885,275.227 605.808,310.304 				"/>
				<path style="fill:#3ADCC9;" d="M605.808,167.883l35.077-35.077v-7.864c0-1.23-0.684-2.29-1.684-2.854l-33.393,33.393V167.883z"
					/>
				<polygon style="fill:#3ADCC9;" points="605.808,136.129 605.808,148.53 632.684,121.654 620.283,121.654 				"/>
				<path style="fill:#3ADCC9;" d="M609.096,121.654c-1.816,0-3.288,1.472-3.288,3.288v4.235l7.524-7.524H609.096z"/>
				<polygon style="fill:#3ADCC9;" points="605.808,187.236 640.885,152.159 640.885,139.757 605.808,174.834 				"/>
				<polygon style="fill:#3ADCC9;" points="605.808,206.589 640.885,171.512 640.885,159.11 605.808,194.187 				"/>
				<polygon style="fill:#3ADCC9;" points="605.808,361.411 640.885,326.334 640.885,313.932 605.808,349.01 				"/>
				<polygon style="fill:#3ADCC9;" points="605.808,225.941 640.885,190.864 640.885,178.463 605.808,213.54 				"/>
				<polygon style="fill:#3ADCC9;" points="605.808,342.058 640.885,306.981 640.885,294.58 605.808,329.657 				"/>
				<polygon style="fill:#3ADCC9;" points="605.808,400.117 640.885,365.04 640.885,352.638 605.808,387.715 				"/>
				<polygon style="fill:#3ADCC9;" points="605.808,380.764 640.885,345.687 640.885,333.285 605.808,368.362 				"/>
				<polygon style="fill:#3ADCC9;" points="605.808,419.469 640.885,384.392 640.885,371.991 605.808,407.068 				"/>
				<path style="fill:#3ADCC9;" d="M637.596,437.346c1.816,0,3.289-1.472,3.289-3.288v-4.008l-7.297,7.297H637.596z"/>
				<polygon style="fill:#3ADCC9;" points="626.636,437.346 640.885,423.098 640.885,410.696 614.235,437.346 				"/>
				<path style="fill:#3ADCC9;" d="M605.808,434.058c0,1.29,0.75,2.395,1.831,2.934l33.246-33.246v-12.401l-35.077,35.077V434.058z"
					/>
			</g>
			<path style="fill:#7F35B2;" d="M544.16,279.5l-24.596-24.596c-1.284-1.284-1.284-3.366,0-4.651l15.127-15.127
				c0.617-0.617,0.963-1.453,0.963-2.325v-32.224v-33.452c0-0.872-0.346-1.709-0.963-2.325l-8.069-8.069l-34.114-34.114
				c-0.617-0.617-1.453-0.963-2.325-0.963h-48.25h-87.144c-1.816,0-3.288,1.472-3.288,3.288v23.019v8.769v78.923v35.077v93.173
				c0,1.816,1.472,3.288,3.288,3.288h28.5c1.816,0,3.288-1.472,3.288-3.288v-89.885c0-1.816,1.472-3.288,3.288-3.288h59.609h34.943
				c0.872,0,1.709,0.346,2.325,0.963l5.68,5.679l33.5,33.5c0.617,0.617,0.963,1.453,0.963,2.325v45.354
				c0,0.872-0.346,1.708-0.963,2.325l-40.408,40.429c-0.617,0.617-1.453,0.964-2.326,0.964h-128.4c-1.816,0-3.288,1.472-3.288,3.288
				v28.5c0,1.816,1.472,3.288,3.288,3.288h126.737h16.176c0.872,0,1.709-0.346,2.325-0.963l18.088-18.088l16.026-16.026
				l26.856-26.835c0.617-0.617,0.964-1.454,0.964-2.326v-40.993v-14.776v-18.676c0-0.872-0.346-1.709-0.963-2.325L544.16,279.5z
				 M485.492,234.691c-0.617,0.617-1.453,0.963-2.325,0.963h-32.465h-60.837c-1.816,0-3.288-1.472-3.288-3.288v-72.346
				c0-1.816,1.472-3.288,3.288-3.288h85.783c0.872,0,1.708,0.346,2.324,0.962l21.64,21.62c0.617,0.617,0.964,1.454,0.964,2.326
				v36.605c0,0.872-0.346,1.709-0.963,2.325l-7.192,7.192L485.492,234.691z"/>
			<path style="fill:#7F35B2;" d="M789.698,279.5l-24.596-24.596c-1.284-1.284-1.284-3.366,0-4.651l15.127-15.127
				c0.617-0.617,0.963-1.453,0.963-2.325v-32.224v-33.452c0-0.872-0.346-1.709-0.963-2.325l-8.069-8.069l-34.114-34.114
				c-0.617-0.617-1.453-0.963-2.325-0.963h-48.25h-8.221c-1.816,0-3.288,1.472-3.288,3.288v28.5c0,1.816,1.472,3.288,3.288,3.288
				h41.937c0.872,0,1.708,0.346,2.324,0.962l21.64,21.62c0.617,0.617,0.964,1.454,0.964,2.326v36.605
				c0,0.872-0.346,1.709-0.963,2.325l-7.192,7.192l-6.929,6.929c-0.617,0.617-1.453,0.963-2.325,0.963H696.24h-16.99
				c-1.816,0-3.288,1.472-3.288,3.288v28.5c0,1.816,1.472,3.288,3.288,3.288h15.763h34.943c0.872,0,1.709,0.346,2.325,0.963
				l5.68,5.679l33.5,33.5c0.617,0.617,0.963,1.453,0.963,2.325v45.354c0,0.872-0.346,1.708-0.963,2.325l-40.408,40.429
				c-0.617,0.617-1.453,0.964-2.326,0.964H679.25c-1.816,0-3.288,1.472-3.288,3.288v28.5c0,1.816,1.472,3.288,3.288,3.288h47.814
				h16.176c0.872,0,1.709-0.346,2.325-0.963l18.088-18.088l16.026-16.026l26.856-26.835c0.617-0.617,0.964-1.454,0.964-2.326
				v-40.993v-14.776v-18.676c0-0.872-0.346-1.709-0.963-2.325L789.698,279.5z"/>
		</g>
		<g style="clip-path:url(#SVGID_00000008870107008853333150000014592327745085831593_);">
		</g>
	</g>
</g>
</svg>
